<svg width="176" height="54" viewBox="0 0 176 54" fill="none" xmlns="http://www.w3.org/2000/svg" role="img" aria-labelledby="title desc">
  <title id="title">Devlino</title>
  <desc id="desc">A monochrome Devlino logo with a mountain road and motorcycle-inspired mark.</desc>
  <defs>
    <filter id="softShadow" x="-6" y="-2" width="66" height="66" color-interpolation-filters="sRGB" filterUnits="userSpaceOnUse">
      <feDropShadow dx="0" dy="8" stdDeviation="7" flood-color="#111111" flood-opacity="0.16"/>
    </filter>
  </defs>
  <g filter="url(#softShadow)">
    <rect x="5" y="5" width="44" height="44" rx="15" fill="#111111"/>
    <rect x="10" y="10" width="34" height="34" rx="11" fill="#FFFFFF"/>
    <path d="M13.5 34.5L24.5 16L30.2 26.2L35.2 20.1L42.4 34.5H13.5Z" fill="#111111"/>
    <path d="M24.5 16L30.2 26.2L27 24.2L21.2 34.5H13.5L24.5 16Z" fill="#555555"/>
    <path d="M17 39.4C21.6 35.9 31.7 35.9 38.5 39.4" stroke="#111111" stroke-width="2.3" stroke-linecap="round"/>
    <path d="M24.6 36.3L22.3 43.1M30.5 36.3L33.3 43.1" stroke="#111111" stroke-width="1.7" stroke-linecap="round"/>
    <circle cx="38.4" cy="35.1" r="3.2" fill="#111111"/>
    <circle cx="38.4" cy="35.1" r="1.2" fill="#FFFFFF"/>
  </g>
  <text x="59" y="32.5" fill="#111111" font-family="Inter, Google Sans, Segoe UI, Arial, sans-serif" font-size="24" font-weight="760">Devlino</text>
  <path d="M60 42H158" stroke="#111111" stroke-width="4" stroke-linecap="round"/>
</svg>
